<svg width="32" height="32" viewBox="0 0 32 32" fill="none" xmlns="http://www.w3.org/2000/svg">
<g clip-path="url(#clip0_114_200)">
<path fill-rule="evenodd" clip-rule="evenodd" d="M16.0004 0.666748C12.2021 0.668719 8.52826 2.01403 5.63591 4.46211C2.74356 6.9102 0.821286 10.3014 0.212807 14.0294C-0.395671 17.7574 0.349317 21.579 2.31458 24.811C4.27983 28.0429 7.3372 30.4744 10.94 31.6707C11.7348 31.8182 12.0342 31.3256 12.0342 30.9067C12.0342 30.4879 12.0183 29.2734 12.013 27.9457C7.56194 28.9072 6.6214 26.0674 6.6214 26.0674C5.89545 24.2233 4.84626 23.7386 4.84626 23.7386C3.39437 22.7533 4.9549 22.7718 4.9549 22.7718C6.56311 22.8851 7.40829 24.413 7.40829 24.413C8.83369 26.8445 11.1519 26.1412 12.0634 25.7302C12.2064 24.7002 12.6224 23.9994 13.0807 23.6016C9.52519 23.2012 5.78947 21.8366 5.78947 15.7406C5.76743 14.1597 6.35745 12.6308 7.43743 11.4703C7.27316 11.0699 6.72472 9.45239 7.59374 7.25532C7.59374 7.25532 8.93702 6.82855 11.9945 8.886C14.617 8.17291 17.3839 8.17291 20.0064 8.886C23.0612 6.82855 24.4018 7.25532 24.4018 7.25532C25.2735 9.44712 24.7251 11.0646 24.5608 11.4703C25.6442 12.631 26.2354 14.1625 26.2114 15.7459C26.2114 21.855 22.4677 23.2012 18.9069 23.5937C19.4792 24.089 19.9905 25.0558 19.9905 26.5416C19.9905 28.6702 19.972 30.3825 19.972 30.9067C19.972 31.3309 20.2607 31.8261 21.0715 31.6707C24.6747 30.4743 27.7323 28.0424 29.6976 24.8099C31.6628 21.5774 32.4074 17.7551 31.7982 14.0268C31.1891 10.2985 29.2658 6.90722 26.3725 4.45956C23.4792 2.01189 19.8045 0.66747 16.0057 0.666748H16.0004Z" fill="#7F7E8A"/>
<path d="M6.05933 23.5093C6.02489 23.5884 5.89771 23.6121 5.79439 23.5568C5.69106 23.5014 5.61423 23.3987 5.65132 23.317C5.68841 23.2354 5.81294 23.2143 5.91627 23.2696C6.01959 23.3249 6.09907 23.4303 6.05933 23.5093Z" fill="#7F7E8A"/>
<path d="M6.70822 24.2286C6.65336 24.2561 6.59058 24.2638 6.53065 24.2503C6.47072 24.2368 6.41736 24.2031 6.3797 24.1548C6.27637 24.0442 6.25516 23.8914 6.33464 23.8229C6.41413 23.7544 6.55721 23.786 6.66054 23.8967C6.76386 24.0073 6.78771 24.1601 6.70822 24.2286Z" fill="#7F7E8A"/>
<path d="M7.33891 25.1427C7.24088 25.2112 7.07396 25.1427 6.98123 25.0057C6.95559 24.9811 6.9352 24.9517 6.92127 24.9191C6.90733 24.8865 6.90015 24.8515 6.90015 24.816C6.90015 24.7806 6.90733 24.7456 6.92127 24.713C6.9352 24.6804 6.95559 24.6509 6.98123 24.6264C7.07926 24.5605 7.24618 24.6264 7.33891 24.7607C7.43164 24.8951 7.43429 25.0742 7.33891 25.1427V25.1427Z" fill="#7F7E8A"/>
<path d="M8.19474 26.0277C8.10731 26.1252 7.9298 26.0989 7.78408 25.9672C7.63836 25.8354 7.60391 25.6563 7.69134 25.5615C7.77877 25.4666 7.95628 25.493 8.1073 25.6221C8.25832 25.7511 8.28747 25.9329 8.19474 26.0277V26.0277Z" fill="#7F7E8A"/>
<path d="M9.39482 26.5443C9.35508 26.6681 9.17491 26.7234 8.99475 26.6707C8.81459 26.618 8.69536 26.4705 8.7298 26.3441C8.76425 26.2176 8.94706 26.1597 9.12987 26.2176C9.31268 26.2756 9.42926 26.4152 9.39482 26.5443Z" fill="#7F7E8A"/>
<path d="M10.7038 26.6337C10.7038 26.7628 10.5554 26.8735 10.3647 26.8761C10.1739 26.8787 10.0176 26.7734 10.0176 26.6443C10.0176 26.5152 10.1659 26.4045 10.3567 26.4019C10.5475 26.3993 10.7038 26.502 10.7038 26.6337Z" fill="#7F7E8A"/>
<path d="M11.9226 26.4309C11.9465 26.56 11.814 26.6943 11.6232 26.7259C11.4325 26.7576 11.2655 26.6812 11.2417 26.5547C11.2179 26.4283 11.3556 26.2913 11.5411 26.257C11.7265 26.2228 11.8988 26.3018 11.9226 26.4309Z" fill="#7F7E8A"/>
</g>
<defs>
<clipPath id="clip0_114_200">
<rect width="32" height="32" fill="white"/>
</clipPath>
</defs>
</svg>
