<svg width="20" height="20" viewBox="0 0 20 20" fill="none" xmlns="http://www.w3.org/2000/svg">
<path d="M3.41881 16.0745C2.70048 16.0745 2.15943 15.8949 1.79566 15.5357C1.43189 15.1766 1.25 14.6424 1.25 13.9333V6.30793C1.25 5.5942 1.42268 5.06006 1.76803 4.7055C2.11338 4.34633 2.59457 4.16675 3.2116 4.16675H15.7479C16.4662 4.16675 17.0072 4.34633 17.371 4.7055C17.7348 5.06006 17.9167 5.5942 17.9167 6.30793V13.9333C17.9167 14.6424 17.744 15.1766 17.3986 15.5357C17.0533 15.8949 16.5721 16.0745 15.9551 16.0745H3.41881ZM3.37737 15.0177H15.7824C16.1277 15.0177 16.3925 14.9256 16.5767 14.7414C16.7655 14.5572 16.8599 14.2879 16.8599 13.9333V6.30793C16.8599 5.95337 16.7655 5.68399 16.5767 5.49981C16.3925 5.31562 16.1277 5.22352 15.7824 5.22352H3.37737C3.03662 5.22352 2.77185 5.31562 2.58306 5.49981C2.39887 5.68399 2.30678 5.95106 2.30678 6.30102V13.9264C2.30678 14.2855 2.39887 14.5572 2.58306 14.7414C2.77185 14.9256 3.03662 15.0177 3.37737 15.0177ZM9.57988 11.9372C9.35885 11.9372 9.14243 11.8957 8.93062 11.8128C8.7188 11.7253 8.51389 11.5918 8.31589 11.4122L1.81638 5.56197L2.53471 4.83673L8.9168 10.5903C9.12862 10.7791 9.34964 10.8735 9.57988 10.8735C9.81472 10.8735 10.0357 10.7791 10.243 10.5903L16.6251 4.83673L17.3434 5.56197L10.8439 11.4122C10.6459 11.5918 10.441 11.7253 10.2291 11.8128C10.0173 11.8957 9.8009 11.9372 9.57988 11.9372ZM2.63831 15.1904L1.91998 14.4651L6.82397 9.56114L7.5423 10.2795L2.63831 15.1904ZM16.5353 15.1973L11.6175 10.2795L12.3427 9.56114L17.2536 14.472L16.5353 15.1973Z" fill="#BBBBC5"/>
</svg>
