<svg width="36" height="36" viewBox="0 0 36 36" fill="none" xmlns="http://www.w3.org/2000/svg">
<path d="M17.8302 11.7358C18.0017 11.7358 18.1595 11.7674 18.3039 11.8306C18.4573 11.8937 18.5971 11.9885 18.7234 12.1148L29.225 22.8465C29.4596 23.09 29.5769 23.3833 29.5769 23.7261C29.5769 23.9607 29.5228 24.1682 29.4145 24.3486C29.3062 24.5381 29.1574 24.6869 28.9679 24.7952C28.7875 24.9125 28.58 24.9711 28.3454 24.9711C28.0116 24.9711 27.7184 24.8493 27.4658 24.6057L17.8302 14.7537L8.19473 24.6057C7.94212 24.8493 7.6489 24.9711 7.31509 24.9711C7.08051 24.9711 6.87301 24.9125 6.69257 24.7952C6.50311 24.6869 6.35424 24.5381 6.24598 24.3486C6.13771 24.1682 6.08358 23.9607 6.08358 23.7261C6.08358 23.3833 6.20538 23.09 6.44897 22.8465L16.9371 12.1148C17.0634 11.9885 17.1987 11.8937 17.3431 11.8306C17.4964 11.7674 17.6588 11.7358 17.8302 11.7358Z" fill="#7F7E8A"/>
</svg>
